<svg xmlns="http://www.w3.org/2000/svg" width="34" height="34" viewBox="0 0 34 34">
    <g>
        <path fill="#fff" d="M0 0H34V34H0z" transform="translate(-327 -1039) translate(327 1039)"/>
        <g>
            <path d="M638.276 117.762a.546.546 0 0 1-.074-.005.539.539 0 0 1-.276-.125l-.032-.03-5.31-5.309a.538.538 0 0 1 .76-.761l4.4 4.4v-11.984a.538.538 0 0 1 1.076 0v12.042l4.562-4.243a.538.538 0 0 1 .733.788l-5.466 5.084a.535.535 0 0 1-.343.141z" transform="translate(-327 -1039) translate(334 1046) translate(-628.149 -103.41)"/>
            <path fill="#2a2a2a" d="M645.925 127.553h-19.316a.546.546 0 0 1-.546-.545v-11.316a.546.546 0 1 1 1.091 0v10.77h18.226v-10.77a.546.546 0 1 1 1.091 0v11.316a.545.545 0 0 1-.546.545z" transform="translate(-327 -1039) translate(334 1046) translate(-626.063 -107.257)"/>
        </g>
    </g>
</svg>
