<svg xmlns="http://www.w3.org/2000/svg" xmlns:xlink="http://www.w3.org/1999/xlink" width="54" height="54" viewBox="0 0 54 54">
    <defs>
        <linearGradient id="linear-gradient" x1="-.11" x2="3.984" y1=".32" y2="1.08" gradientUnits="objectBoundingBox">
            <stop offset="0" stop-color="#4765ff"/>
            <stop offset="1" stop-color="#32d8b8"/>
        </linearGradient>
        <linearGradient id="linear-gradient-2" x1="-2.971" x2="1.124" y1="-.077" y2=".682" xlink:href="#linear-gradient"/>
        <linearGradient id="linear-gradient-3" x1="-7.508" x2="3.724" y1="-.039" y2=".718" xlink:href="#linear-gradient"/>
        <linearGradient id="linear-gradient-4" x1="-2.688" x2="8.545" y1=".284" y2="1.041" xlink:href="#linear-gradient"/>
        <linearGradient id="linear-gradient-5" x1="-2.64" x2="3.558" y1="-.108" y2="1.28" xlink:href="#linear-gradient"/>
        <linearGradient id="linear-gradient-6" x1="-.065" x2="1.541" y1=".102" y2=".795" xlink:href="#linear-gradient"/>
        <linearGradient id="linear-gradient-7" x1="-8.086" x2="15.824" y1="-5.67" y2="11.511" xlink:href="#linear-gradient"/>
        <style>
            .cls-1,.cls-6{fill:#fff}.cls-2{fill:none}.cls-6{opacity:.3}
        </style>
    </defs>
    <g id="그룹_1581" transform="translate(-28 -24)">
        <path id="사각형_611" d="M0 0H54V54H0z" class="cls-1" transform="translate(28 24)"/>
        <g id="그룹_674" transform="translate(-147.212 -640.779)">
            <g id="그룹_673" transform="translate(178.212 668.779)">
                <path id="패스_304" d="M211.313 671.255h-9.683a2.015 2.015 0 0 0-2.013 2.013v2.3h13.709v-2.3a2.015 2.015 0 0 0-2.013-2.013z" class="cls-2" transform="translate(-182.217 -669.242)"/>
                <path id="패스_305" fill="url(#linear-gradient)" d="M178.212 686.945v19.709a10.361 10.361 0 0 0 9.19 10.293v-40.294a10.361 10.361 0 0 0-9.19 10.292z" transform="translate(-178.212 -670.252)"/>
                <path id="패스_306" fill="url(#linear-gradient-2)" d="M226.581 676.653v40.293a10.361 10.361 0 0 0 9.19-10.293v-19.708a10.361 10.361 0 0 0-9.19-10.292z" transform="translate(-187.263 -670.252)"/>
                <path id="패스_307" fill="url(#linear-gradient-3)" d="M224.638 676.566h-2.178V717h2.178a10.527 10.527 0 0 0 1.172-.071v-40.292a10.354 10.354 0 0 0-1.172-.071z" transform="translate(-186.492 -670.236)"/>
                <path id="패스_308" d="M224.638 676.566h-2.178V717h2.178a10.527 10.527 0 0 0 1.172-.071v-40.292a10.354 10.354 0 0 0-1.172-.071z" class="cls-6" transform="translate(-186.492 -670.236)"/>
                <path id="패스_309" fill="url(#linear-gradient-4)" d="M190.691 676.566a10.357 10.357 0 0 0-1.173.071v40.293a10.53 10.53 0 0 0 1.173.071h2.177v-40.435z" transform="translate(-180.328 -670.236)"/>
                <path id="패스_310" d="M190.691 676.566a10.357 10.357 0 0 0-1.173.071v40.293a10.53 10.53 0 0 0 1.173.071h2.177v-40.435z" class="cls-6" transform="translate(-180.328 -670.236)"/>
                <path id="패스_311" d="M213.326 673.268a2.015 2.015 0 0 0-2.013-2.013h-9.683a2.015 2.015 0 0 0-2.013 2.013v2.3h13.709z" class="cls-2" transform="translate(-182.217 -669.242)"/>
                <path id="패스_312" fill="url(#linear-gradient-5)" d="M199.258 717.738c.811-2.889.282-10.5.282-10.5-.145-5.168-1.219-4.858-1.219-4.858a8.258 8.258 0 0 1-4.683-3.2v22.051h4.572c.307-.782.771-2.437.972-3.2.043-.178.076-.293.076-.293z" transform="translate(-181.099 -674.468)"/>
                <path id="패스_313" fill="url(#linear-gradient-6)" d="M197.058 687.3c1.8-2.131 3.585-2.091 3.9-2.067l-3.42-2.208a.446.446 0 1 1 .484-.749l10.838 7a.859.859 0 0 1 .143.093l4.925 3.18a.446.446 0 0 1-.484.749l-1.994-1.288.823.9a1.053 1.053 0 0 1-.4 1.693l-3 1.157a1.159 1.159 0 0 1-1.016-.026c-.308-.26-.294-.922-.263-1.156l.254-2.926a.425.425 0 0 0-.388-.46.434.434 0 0 0-.46.387l-.25 2.9a2.26 2.26 0 0 0 .554 1.9 1.461 1.461 0 0 0 .98.335 2.8 2.8 0 0 0 .757-.123 45.884 45.884 0 0 0 2.453 6.055 38.7 38.7 0 0 1 4.186 9.554c.067.289.117.549.16.794a12.053 12.053 0 0 0 1.223-1.611v-36.274h-2.843v-2.3a4.03 4.03 0 0 0-4.025-4.025h-9.684a4.03 4.03 0 0 0-4.025 4.025v2.3h-2.847v13.734a2.86 2.86 0 0 1 .77-.316c2.267-.588 2.649-1.227 2.649-1.227zm13.9 2.252l-8.913-5.754a5.34 5.34 0 0 1 8.913 5.754zM198.5 672.8a2.015 2.015 0 0 1 2.013-2.013h9.684a2.015 2.015 0 0 1 2.013 2.013v2.3H198.5z" transform="translate(-181.099 -668.779)"/>
                <path id="패스_314" fill="url(#linear-gradient-7)" d="M202.69 693.535a.9.9 0 1 0 .787.891.844.844 0 0 0-.787-.891z" transform="translate(-182.645 -673.411)"/>
                <path id="패스_315" d="M211.3 685.914a5.342 5.342 0 0 0-7.318.89l8.913 5.754a5.343 5.343 0 0 0-1.595-6.644z" class="cls-1" transform="translate(-183.033 -671.787)"/>
                <path id="패스_316" d="M223.811 715.4a.161.161 0 0 0-.284.133 6.164 6.164 0 0 1-1.067 4.558v3.855c5.415-2.501 2.623-6.935 1.351-8.546z" class="cls-1" transform="translate(-186.492 -677.492)"/>
                <path id="패스_317" d="M192.977 697.469a7.78 7.78 0 0 0 .445.643v-4.65c-1.378.838-.992 2.613-.445 4.007z" class="cls-1" transform="translate(-180.881 -673.398)"/>
                <path id="패스_318" d="M215.844 716.082c-.043-.245-.093-.5-.16-.794a38.7 38.7 0 0 0-4.186-9.554 45.888 45.888 0 0 1-2.453-6.055 2.8 2.8 0 0 1-.757.123 1.461 1.461 0 0 1-.98-.335 2.26 2.26 0 0 1-.554-1.9l.25-2.9a.434.434 0 0 1 .46-.387.425.425 0 0 1 .388.46l-.254 2.926c-.032.234-.046.9.263 1.156a1.16 1.16 0 0 0 1.016.026l3-1.157a1.053 1.053 0 0 0 .4-1.693l-.823-.9 1.994 1.288a.446.446 0 0 0 .484-.749L209 692.455a.874.874 0 0 0-.143-.093l-10.838-7a.446.446 0 0 0-.484.749l3.42 2.208c-.313-.024-2.1-.064-3.9 2.067 0 0-.382.641-2.649 1.228a2.859 2.859 0 0 0-.77.316v4.65a8.257 8.257 0 0 0 4.683 3.2s1.074-.311 1.219 4.858c0 0 .529 7.608-.282 10.5 0 0-.033.115-.076.3-.2.762-.665 2.417-.972 3.2h18.123q.389-.149.733-.308v-3.855a12.062 12.062 0 0 1-1.22 1.607zm-14.7-22.308a.9.9 0 1 1 .787-.891.844.844 0 0 1-.788.892z" class="cls-1" transform="translate(-181.099 -671.869)"/>
            </g>
        </g>
    </g>
</svg>
