<svg xmlns="http://www.w3.org/2000/svg" width="34" height="34" viewBox="0 0 34 34">
    <defs>
        <style>
            .cls-2{fill:#2a2a2a}
        </style>
    </defs>
    <g id="그룹_1331" transform="translate(-51 -181)">
        <path id="사각형_60" fill="none" d="M0 0H34V34H0z" transform="translate(51 181)"/>
        <g id="그룹_683" transform="translate(-97.166 91.034)">
            <g id="그룹_682" transform="translate(155.675 95.966)">
                <path id="패스_331" d="M168.839 107.466a5.75 5.75 0 1 0-5.751-5.75 5.757 5.757 0 0 0 5.751 5.75zm0-10.588a4.838 4.838 0 1 1-4.839 4.839 4.845 4.845 0 0 1 4.839-4.839z" class="cls-2" transform="translate(-159.347 -95.966)"/>
                <path id="패스_332" d="M165.167 120.155a9.5 9.5 0 0 0-9.492 9.492.457.457 0 0 0 .913 0 8.578 8.578 0 1 1 17.156 0 .457.457 0 0 0 .914 0 9.5 9.5 0 0 0-9.491-9.492z" class="cls-2" transform="translate(-155.675 -107.949)"/>
            </g>
        </g>
    </g>
</svg>
