<svg xmlns="http://www.w3.org/2000/svg" width="24" height="24" viewBox="0 0 24 24">
    <g>
        <path fill="#fff" d="M0 0H24V24H0z" transform="translate(-278 -34) translate(278 34)"/>
        <path fill="#2a2a2a" d="M250.33 436.838q.045-.372.063-.75c0-.041.005-.081.007-.122.009-.284 0-.571-.014-.859 0-.034 0-.067-.006-.1 0-.056 0-.112-.01-.168-.012-.145-.04-.285-.059-.429s-.031-.259-.053-.387c-.036-.214-.085-.423-.135-.632-.022-.091-.042-.183-.067-.273-.062-.229-.135-.453-.213-.675l-.073-.209c-.085-.224-.179-.442-.279-.657-.033-.07-.064-.142-.1-.211-.1-.2-.2-.392-.316-.583-.051-.088-.1-.177-.156-.264-.1-.16-.207-.315-.316-.469-.081-.115-.162-.228-.248-.339s-.186-.23-.283-.343c-.117-.137-.236-.273-.36-.4-.077-.08-.155-.157-.234-.235-.152-.149-.307-.294-.469-.434-.066-.056-.134-.109-.2-.164-.177-.145-.358-.285-.546-.418-.069-.048-.14-.093-.21-.14-.187-.125-.377-.245-.575-.358-.092-.052-.187-.1-.28-.149-.179-.094-.359-.187-.545-.27-.133-.06-.27-.111-.406-.165s-.241-.106-.368-.15c-.04-.014-.08-.023-.12-.036-.1-.032-.192-.058-.287-.087-.188-.057-.377-.109-.566-.154-.111-.026-.224-.049-.336-.071q-.279-.056-.558-.094c-.111-.015-.221-.031-.333-.043-.215-.022-.431-.035-.647-.043-.083 0-.165-.01-.248-.011-.3 0-.6.007-.9.032h-.036c-.1.009-.2.027-.307.04-.148.018-.3.033-.444.057-.13.022-.258.051-.386.078s-.263.052-.392.084-.251.071-.376.108-.261.074-.39.118c-.11.038-.217.081-.325.122-.143.054-.286.108-.427.169-.082.036-.163.077-.244.115-.164.077-.326.154-.485.239-.053.028-.1.059-.155.088-.184.1-.365.209-.542.324l-.069.048q-.3.2-.586.418a9.665 9.665 0 0 0-2.084 2.21c-.006.008-.006.018-.011.025a9.674 9.674 0 0 0-1.416 3.253l-1.638-3.251a.5.5 0 1 0-.9.453l2.162 4.295a.505.505 0 0 0 .678.224l4.294-2.162a.5.5 0 1 0-.454-.9l-3.23 1.627a8.768 8.768 0 0 1 3.721-5.406l.051-.034c.164-.107.333-.206.5-.3.042-.023.083-.049.125-.071.148-.08.3-.153.455-.224.068-.031.134-.065.2-.095.134-.059.272-.11.409-.162.089-.034.178-.07.268-.1.126-.043.255-.079.384-.116.1-.03.2-.062.307-.088.13-.033.263-.058.4-.085.1-.021.2-.045.307-.062.15-.024.3-.041.456-.058.085-.01.17-.023.255-.031.277-.023.553-.032.826-.029.069 0 .138.007.208.01.2.007.4.019.6.04.1.01.2.024.294.038q.256.036.507.085c.1.021.2.041.3.065.17.04.338.087.5.137.089.026.179.051.268.081.145.049.286.107.428.163.127.05.255.1.378.154.164.073.324.156.482.239.088.046.177.091.263.14.174.1.343.207.511.318.065.044.133.086.2.132.167.117.328.242.486.371.063.051.127.1.188.154.144.123.281.254.416.386.073.071.147.143.218.217.11.116.216.237.32.359.088.1.176.208.26.316s.147.2.22.3c.1.14.2.283.288.428.048.077.092.155.138.233.1.174.2.351.288.531.03.061.058.124.087.185.091.2.177.4.254.6.023.061.043.124.066.186.071.2.137.4.193.611.023.082.041.165.06.248.046.188.088.376.121.567.02.118.033.238.049.358.022.169.045.336.058.507 0 .067.006.134.009.2q.015.3.01.6c0 .079 0 .159-.007.238q-.015.312-.052.625c-.007.056-.011.113-.018.169q-.055.395-.147.789l-.033.127c-.048.191-.106.381-.167.571a8.614 8.614 0 0 1-.455 1.122 9.15 9.15 0 0 1-1.686 2.366c-.164.162-.33.323-.509.474l-.119.1a9.018 9.018 0 0 1-4.015 1.872c-.1.018-.2.031-.306.045-.129.019-.258.038-.388.051-.109.011-.219.017-.328.024-.19.012-.38.024-.571.022a.475.475 0 1 0-.009.951c.117 0 .232-.009.349-.013v.008c.081 0 .161-.012.241-.017.138-.008.277-.016.415-.029.113-.012.224-.029.337-.044.145-.02.289-.037.433-.063.251-.046.5-.1.746-.167l.042-.013a9.846 9.846 0 0 0 1.36-.482.519.519 0 0 0 .055-.012c.107-.047.208-.1.313-.155v.007c.073-.035.142-.077.213-.114s.165-.088.247-.133l.06-.031.06-.033c.1-.057.193-.118.289-.178l.2-.129c.048-.032.1-.06.145-.092l.021-.013c.059-.041.114-.087.172-.128a9.662 9.662 0 0 0 2.128-2.068c.163-.215.318-.434.46-.659h-.007c.071-.114.13-.238.2-.356.085-.147.17-.294.247-.447.066-.13.125-.265.184-.4q.118-.262.221-.532c.028-.074.064-.144.091-.22.018-.051.029-.1.045-.155.06-.182.112-.367.162-.553.027-.1.06-.207.083-.311.005-.02.012-.04.016-.06.061-.262.112-.526.15-.789h-.008c.006-.075.01-.13.017-.185z" transform="translate(-278 -34) translate(50.391 -389.939)"/>
    </g>
</svg>
