<svg xmlns="http://www.w3.org/2000/svg" width="34" height="34" viewBox="0 0 34 34">
    <path fill="none" d="M0 0H34V34H0z"/>
    <g>
        <path fill="#2a2a2a" d="M513.117 107.564a4.444 4.444 0 0 0 8.294 2.223l5.267 2.951a4.466 4.466 0 1 0 .426-.984l-5.271-2.953a4.415 4.415 0 0 0-.168-2.958l5.616-3.146a4.525 4.525 0 1 0-.493-.947l-5.658 3.169a4.442 4.442 0 0 0-8.013 2.646zm14.473-7.387a3.353 3.353 0 1 1 3.353 3.354 3.357 3.357 0 0 1-3.353-3.354zm0 13.81a3.353 3.353 0 1 1 3.353 3.354 3.357 3.357 0 0 1-3.353-3.354zm-13.379-6.424a3.353 3.353 0 1 1 3.353 3.354 3.357 3.357 0 0 1-3.353-3.353z" transform="translate(-507.117 -89.73) translate(0 0)"/>
    </g>
</svg>
