<svg xmlns="http://www.w3.org/2000/svg" width="28" height="28" viewBox="0 0 28 28">
    <defs>
        <style>
            .cls-2{fill:#2a2a2a}
        </style>
    </defs>
    <g id="그룹_1117" transform="translate(-745 -706)">
        <path id="사각형_361" fill="none" d="M0 0H28V28H0z" transform="translate(745 706)"/>
        <g id="그룹_1115" transform="translate(-25 8)">
            <g id="그룹_1114" transform="translate(773 701)">
                <path id="패스_549" d="M178.532 425.873a10.762 10.762 0 1 0 10.761 10.759 10.773 10.773 0 0 0-10.761-10.759zm0 20.5a9.743 9.743 0 1 1 9.743-9.745 9.755 9.755 0 0 1-9.743 9.75z" class="cls-2" transform="translate(-167.77 -425.873)"/>
                <g id="그룹_1113" transform="translate(7.414 6.779)">
                    <path id="패스_550" d="M180.528 444.739q.338-.861.666-1.761t.655-1.782l.589-1.551q.211-.558.312-.866a3.011 3.011 0 0 1 .158-.44 2.486 2.486 0 0 0 .118-.277.966.966 0 0 1 .3-.389.681.681 0 0 1 .43-.164.8.8 0 0 1 .532.189.961.961 0 0 1 .308.446q.358.839.681 1.643t.6 1.6q.317.809.609 1.617t.64 1.679v-.01a.6.6 0 0 1 .072.267.451.451 0 0 1-.031.138.85.85 0 0 1-.082.169.63.63 0 0 1-.215.128.837.837 0 0 1-.307.056.74.74 0 0 1-.425-.128.66.66 0 0 1-.261-.322v-.01c-.041-.116-.109-.3-.205-.542s-.2-.536-.327-.871H182.3a5.994 5.994 0 0 1-.25.63 8.011 8.011 0 0 0-.313.814.674.674 0 0 1-.256.327.705.705 0 0 1-.43.143.388.388 0 0 1-.154-.03h.01a.437.437 0 0 1-.409-.471.85.85 0 0 1 .03-.225zm3.287-5.283q-.134.337-.256.676t-.287.686a6.779 6.779 0 0 1-.271.732 7.746 7.746 0 0 0-.292.794h2.243z" class="cls-2" transform="translate(-180.498 -437.511)"/>
                </g>
            </g>
        </g>
    </g>
</svg>
