<svg xmlns="http://www.w3.org/2000/svg" width="28" height="28" viewBox="0 0 28 28">
    <defs>
        <style>
            .cls-2{fill:#2a2a2a}
        </style>
    </defs>
    <g id="그룹_1111" transform="translate(-745 -634)">
        <path id="사각형_584" fill="none" d="M0 0H28V28H0z" transform="translate(745 634)"/>
        <g id="그룹_1110" transform="translate(703.579 210.666)">
            <path id="패스_544" d="M63.2 457.71h-7.253a.441.441 0 0 0-.339.75.5.5 0 0 0 .343.124h7.254a.445.445 0 0 0 .48-.441.439.439 0 0 0-.485-.433z" class="cls-2" transform="translate(-4.26 -12.087)"/>
            <path id="패스_545" d="M65.18 430.827h-7.358v-1.355-.042h.814a1.034 1.034 0 0 0 1.041-1.025v-1.047a1.034 1.034 0 0 0-1.041-1.025h-6.8a1.034 1.034 0 0 0-1.041 1.025v1.047a1.034 1.034 0 0 0 1.041 1.025h.653v1.397h-7.027a1.034 1.034 0 0 0-1.041 1.025v15.457a1.034 1.034 0 0 0 1.041 1.025H65.18a1.034 1.034 0 0 0 1.041-1.025v-15.457a1.034 1.034 0 0 0-1.041-1.025zm-13.4-2.421v-1.047c0-.02.025-.041.058-.041h6.8c.034 0 .058.022.058.041v1.047c0 .02-.025.041-.058.041h-6.8c-.031 0-.056-.022-.056-.041zm1.691 2.38v-1.313c0-.02.025-.042.058-.042h3.253c.034 0 .058.022.058.042v1.313c0 .02-.025.042-.058.042h-3.251c-.031-.001-.058-.023-.058-.043zm11.765 16.524c0 .02-.025.041-.058.041H45.462c-.033 0-.058-.022-.058-.041v-15.458c0-.02.025-.042.058-.042H65.18a.053.053 0 0 1 .058.042z" class="cls-2" transform="translate(0 0)"/>
            <path id="패스_546" d="M64.3 437H49.28a1.034 1.034 0 0 0-1.041 1.025v10a1.034 1.034 0 0 0 1.041 1.025H64.3a1.034 1.034 0 0 0 1.041-1.025v-10A1.034 1.034 0 0 0 64.3 437zm.058 1.025v9.631l-4.5-9.672H64.3c.037-.002.061.016.061.039zm-5.585-.041l4.691 10.082H50.116l4.691-10.082zm-9.5 0h4.442l-4.5 9.672v-9.631c.007-.025.031-.043.065-.043z" class="cls-2" transform="translate(-1.471 -4.108)"/>
        </g>
    </g>
</svg>
