<svg xmlns="http://www.w3.org/2000/svg" width="28" height="28" viewBox="0 0 28 28">
    <defs>
        <style>
            .cls-2{fill:#2a2a2a}
        </style>
    </defs>
    <g id="그룹_1116" transform="translate(-745 -670)">
        <path id="사각형_360" fill="none" d="M0 0H28V28H0z" transform="translate(745 670)"/>
        <g id="그룹_1112" transform="translate(638.535 246.098)">
            <path id="패스_547" d="M127.8 433.539h-.019a7.169 7.169 0 0 0-14.317.531v8.659a7.168 7.168 0 0 0 14.337 0v-8.659zm-1.058 9.19a6.107 6.107 0 0 1-12.213 0v-8.659a6.107 6.107 0 0 1 12.214 0v.528z" class="cls-2" transform="translate(0 0)"/>
            <path id="패스_548" d="M126 437.281l-3.273-3.4a.53.53 0 0 0-.913.368v5.093l-2.367-2.367a.531.531 0 1 0-.751.751l3.048 3.049-3.048 3.047a.531.531 0 0 0 .751.751l2.367-2.367v5.094a.531.531 0 0 0 .913.368l3.273-3.4a.532.532 0 0 0-.007-.744l-2.747-2.747 2.747-2.747a.532.532 0 0 0 .007-.749zm-1.127 6.621l-2 2.078v-4.08zm-2-4.261v-4.076l2 2.077z" class="cls-2" transform="translate(-1.706 -2.292)"/>
        </g>
    </g>
</svg>
