<svg xmlns="http://www.w3.org/2000/svg" width="28" height="28" viewBox="0 0 28 28">
    <defs>
        <style>
            .cls-2{fill:#2a2a2a}
        </style>
    </defs>
    <g id="그룹_1108" transform="translate(-745 -598)">
        <path id="사각형_363" fill="none" d="M0 0H28V28H0z" transform="translate(745 598)"/>
        <g id="그룹_1107" transform="translate(-222.905 426.02)">
            <path id="패스_542" d="M990.839 179.823h-4.35l-.774-1.231c-.1-.165-.97-1.612-2.2-1.612H979.2c-1.233 0-2.109 1.447-2.195 1.6-.364.58-.61.972-.771 1.247h-4.017a1.3 1.3 0 0 0-1.313 1.29V192.7a1.3 1.3 0 0 0 1.313 1.29h18.622a1.3 1.3 0 0 0 1.314-1.29v-11.587a1.3 1.3 0 0 0-1.314-1.29zm.2 12.877a.188.188 0 0 1-.2.174h-18.621a.188.188 0 0 1-.2-.174v-11.587a.188.188 0 0 1 .2-.174h4.315a.559.559 0 0 0 .475-.265l.953-1.519c.2-.345.772-1.058 1.24-1.058h4.312c.468 0 1.037.712 1.249 1.073l.947 1.508a.557.557 0 0 0 .472.261h4.659a.188.188 0 0 1 .2.174z" class="cls-2" transform="translate(0 0)"/>
            <path id="패스_543" d="M984.1 184.079a4.686 4.686 0 1 0 4.686 4.685 4.691 4.691 0 0 0-4.686-4.685zm0 8.33a3.644 3.644 0 1 1 3.644-3.645 3.648 3.648 0 0 1-3.644 3.645z" class="cls-2" transform="translate(-2.574 -2.147)"/>
        </g>
    </g>
</svg>
