<svg xmlns="http://www.w3.org/2000/svg" width="28" height="28" viewBox="0 0 28 28">
    <defs>
        <style>
            .cls-2{fill:#2a2a2a}
        </style>
    </defs>
    <g id="그룹_1105" transform="translate(-320 -706)">
        <path id="사각형_362" fill="none" d="M0 0H28V28H0z" transform="translate(320 706)"/>
        <g id="그룹_1104" transform="translate(-513.039 540.366)">
            <path id="패스_539" d="M855.039 187.745a1.9 1.9 0 0 0 0-3.029v-8.33a.406.406 0 0 0-.133-.3l-5.431-4.936a.4.4 0 0 0-.272-.105h-1.644v-2.007a.4.4 0 0 0-.4-.4h-3.925a.4.4 0 0 0-.4.4v2.248l-2.912 3a.4.4 0 0 0-.114.282v10.145a1.9 1.9 0 0 0 0 3.029 1.911 1.911 0 0 0 1.165 3.432h12.917a1.911 1.911 0 0 0 1.165-3.432zm-8.292-18.3v1.6h-3.115v-1.6zm7.128 20.923h-12.918a1.108 1.108 0 1 1 0-2.216.405.405 0 0 0 0-.81 1.108 1.108 0 1 1 0-2.216.4.4 0 0 0 0-.81 1.851 1.851 0 0 0-.352.036v-9.615l2.793-2.88h5.646l5.182 4.71v7.784a1.863 1.863 0 0 0-.352-.036.4.4 0 1 0 0 .81 1.108 1.108 0 1 1 0 2.216.405.405 0 0 0 0 .81 1.108 1.108 0 1 1 0 2.216z" class="cls-2"/>
            <path id="패스_540" d="M853.759 178.006a1.39 1.39 0 0 0-1.908.091 1.352 1.352 0 0 0 .092 1.908l3.616 3.287a1.351 1.351 0 0 0 1.817-2zm3.108 4.649a.554.554 0 0 1-.764.036l-3.616-3.286a.541.541 0 0 1-.036-.764.541.541 0 0 1 .764-.037l3.616 3.286a.542.542 0 0 1 .036.766z" class="cls-2" transform="translate(-5.256 -3.811)"/>
            <path id="패스_541" d="M853.274 191.56c-.911-1.582-1.291-1.582-1.434-1.582s-.52 0-1.433 1.581a5.58 5.58 0 0 0-.877 2.311 2.31 2.31 0 1 0 4.62 0 5.557 5.557 0 0 0-.876-2.31zm-1.434 3.791a1.482 1.482 0 0 1-1.48-1.48 4.877 4.877 0 0 1 .766-1.9 6.8 6.8 0 0 1 .715-1.055 7.069 7.069 0 0 1 .715 1.055 4.887 4.887 0 0 1 .766 1.9 1.482 1.482 0 0 1-1.482 1.48z" class="cls-2" transform="translate(-4.425 -9.003)"/>
        </g>
    </g>
</svg>
