<svg xmlns="http://www.w3.org/2000/svg" width="28" height="28" viewBox="0 0 28 28">
    <defs>
        <style>
            .cls-2{fill:#2a2a2a}
        </style>
    </defs>
    <g id="그룹_1109" transform="translate(-320 -670)">
        <path id="사각형_361" fill="none" d="M0 0H28V28H0z" transform="translate(320 670)"/>
        <g id="그룹_1101" transform="translate(-446.25 504.292)">
            <path id="패스_535" d="M783.535 194.8a.407.407 0 0 0-.455.357.38.38 0 0 0 .09.292.418.418 0 0 0 .282.145c4.25.405 6.162 1.4 6.162 1.968 0 .869-3.8 2.133-9.766 2.133s-9.766-1.263-9.766-2.133c0-.576 1.924-1.569 6.2-1.972a.416.416 0 0 0 .28-.143.384.384 0 0 0 .093-.292.409.409 0 0 0-.454-.359c-1.631.154-6.951.809-6.951 2.765 0 1.9 5.46 2.931 10.6 2.931s10.6-1.027 10.6-2.931c-.003-1.948-5.293-2.603-6.915-2.761z" class="cls-2" transform="translate(0 -10.681)"/>
            <g id="그룹_1100" transform="translate(773.478 168.708)">
                <path id="패스_536" d="M784.468 172.972a3.934 3.934 0 1 0 3.934 3.934 3.938 3.938 0 0 0-3.934-3.934zm0 7.022a3.088 3.088 0 1 1 3.087-3.088 3.092 3.092 0 0 1-3.087 3.088z" class="cls-2" transform="translate(-778.098 -170.454)"/>
                <path id="패스_537" d="M782.779 168.708a6.377 6.377 0 0 0-6.37 6.371c0 1.41.985 3.958 2.634 6.815.612 1.06 2.689 4.52 3.736 4.52s3.125-3.46 3.736-4.52c1.65-2.857 2.635-5.4 2.635-6.815a6.377 6.377 0 0 0-6.371-6.371zm0 16.85c-.219-.119-1.274-1.094-3-4.087-1.579-2.734-2.521-5.124-2.521-6.392a5.523 5.523 0 1 1 11.047 0c0 1.268-.943 3.658-2.521 6.392-1.73 2.992-2.784 3.967-3.005 4.087z" class="cls-2" transform="translate(-776.409 -168.708)"/>
            </g>
        </g>
    </g>
</svg>
