<svg xmlns="http://www.w3.org/2000/svg" xmlns:xlink="http://www.w3.org/1999/xlink" width="144" height="180" viewBox="0 0 144 180">
    <defs>
        <linearGradient id="linear-gradient" x1="-47.746" x2="3.532" y1="-93.215" y2="6.389" gradientUnits="objectBoundingBox">
            <stop offset="0" stop-color="#4765ff"/>
            <stop offset="1" stop-color="#32d8b8"/>
        </linearGradient>
        <linearGradient id="linear-gradient-2" x1="-.11" x2="3.984" y1=".32" y2="1.08" xlink:href="#linear-gradient"/>
        <linearGradient id="linear-gradient-3" x1="-2.971" x2="1.124" y1="-.077" y2=".682" xlink:href="#linear-gradient"/>
        <linearGradient id="linear-gradient-4" x1="-7.509" x2="3.724" y1="-.039" y2=".718" xlink:href="#linear-gradient"/>
        <linearGradient id="linear-gradient-5" x1="-2.688" x2="8.545" y1=".284" y2="1.041" xlink:href="#linear-gradient"/>
        <linearGradient id="linear-gradient-6" x1="-2.64" x2="3.558" y1="-.108" y2="1.28" xlink:href="#linear-gradient"/>
        <linearGradient id="linear-gradient-7" x1="-.065" x2="1.541" y1=".102" y2=".795" xlink:href="#linear-gradient"/>
        <linearGradient id="linear-gradient-8" x1="-8.083" x2="15.819" y1="-5.672" y2="11.515" xlink:href="#linear-gradient"/>
        <style>
            .cls-1,.cls-8{fill:#fff}.cls-2{fill:#4765ff}.cls-4{fill:none}.cls-8{opacity:.3}
        </style>
    </defs>
    <g id="그룹_671" transform="translate(10013 23044)">
        <path id="사각형_607" d="M0 0H144V180H0z" class="cls-1" transform="translate(-10013 -23044)"/>
        <g id="그룹_670" transform="translate(-10068.305 -23450.402)">
            <g id="그룹_668" transform="translate(67.049 547.793)">
                <path id="패스_274" d="M85.967 500.908H66.534a1.117 1.117 0 0 0-.793.373 1.2 1.2 0 0 0-.25.905v31.5a1.093 1.093 0 0 0 1.163 1.192h3.641a1.093 1.093 0 0 0 1.163-1.192v-12.82h13.221a1.094 1.094 0 0 0 1.207-1.148v-2.958a1.093 1.093 0 0 0-1.207-1.148H71.458v-9.364h14.509a1.093 1.093 0 0 0 1.207-1.148v-3.045a1.093 1.093 0 0 0-1.207-1.147z" class="cls-2" transform="translate(-65.485 -500.482)"/>
                <path id="패스_275" d="M87.395 506.675h-3.553a1.093 1.093 0 0 0-1.163 1.192v22.839a1.093 1.093 0 0 0 1.163 1.192h3.553a1.093 1.093 0 0 0 1.163-1.192v-22.839a1.093 1.093 0 0 0-1.163-1.192z" class="cls-2" transform="translate(-56.608 -497.504)"/>
                <path id="패스_276" d="M87.46 500.8a10.016 10.016 0 0 0-3.675 0 1.142 1.142 0 0 0-1.105 1.186v3.654a1.14 1.14 0 0 0 1.1 1.186 10.07 10.07 0 0 0 3.675 0 1.144 1.144 0 0 0 1.105-1.187v-3.654a1.142 1.142 0 0 0-1.1-1.185z" class="cls-2" transform="translate(-56.608 -500.627)"/>
                <path id="패스_277" d="M104.558 529.331a20.774 20.774 0 0 1-3.96.129c-1.409-.109-1.794-.705-1.794-2.769v-12.818h5.14a1.093 1.093 0 0 0 1.208-1.146v-2.611a1.094 1.094 0 0 0-1.208-1.148H98.8v-5.292a1.092 1.092 0 0 0-1.164-1.19h-3.548a1.092 1.092 0 0 0-1.164 1.19v5.292H90.36a1.1 1.1 0 0 0-1.21 1.148v2.611a1.094 1.094 0 0 0 1.21 1.146h2.564v14.166c0 4.256 2.12 6.238 6.668 6.238a15.466 15.466 0 0 0 5.3-.814 1.284 1.284 0 0 0 .926-1.29v-1.783a1.008 1.008 0 0 0-1.26-1.059z" class="cls-2" transform="translate(-53.267 -499.667)"/>
                <path id="패스_278" d="M115.491 500.908h-11.41a1.165 1.165 0 0 0-1.342 1.1v31.671a1.093 1.093 0 0 0 1.163 1.192h3.641a1.093 1.093 0 0 0 1.164-1.192V521.6h6.117c8.812 0 12.573-2.828 12.573-9.457v-1.87c.003-8.252-6.019-9.365-11.906-9.365zm5.938 8.891v2.567c0 2.641-1.087 4.073-6.828 4.073h-5.894v-10.365h7.005c4.832 0 5.716 1.255 5.716 3.726z" class="cls-2" transform="translate(-46.252 -500.482)"/>
                <path id="패스_279" d="M131.466 506.761c-7.308 0-11.331 4.177-11.331 11.763v2.349c0 5.213 1.363 11.2 12 11.2 1.231 0 5.478-.132 8.483-1.832a1.448 1.448 0 0 0 .895-1.36v-2a.906.906 0 0 0-.925-1 1.453 1.453 0 0 0-.484.09 24.623 24.623 0 0 1-7.437 1.16h-.349c-6.508-.084-6.521-2.884-6.521-5.362H140.3c1.236 0 1.741-.472 1.741-1.627v-1c-.001-8.449-3.361-12.381-10.575-12.381zm4.96 10.092h-10.634c.046-3.572 1.763-5.1 5.718-5.1 3.446.001 4.879 1.481 4.916 5.1z" class="cls-2" transform="translate(-37.272 -497.46)"/>
                <path id="패스_280" d="M150.976 529.331a20.778 20.778 0 0 1-3.96.129c-1.409-.109-1.794-.705-1.794-2.769v-12.818h5.14a1.093 1.093 0 0 0 1.208-1.146v-2.611a1.094 1.094 0 0 0-1.208-1.148h-5.14v-5.292a1.092 1.092 0 0 0-1.164-1.19h-3.551a1.092 1.092 0 0 0-1.164 1.19v5.292h-2.564a1.094 1.094 0 0 0-1.21 1.148v2.611a1.094 1.094 0 0 0 1.21 1.146h2.564v14.166c0 4.256 2.12 6.238 6.668 6.238a15.466 15.466 0 0 0 5.3-.814 1.284 1.284 0 0 0 .926-1.29v-1.783a1.008 1.008 0 0 0-1.261-1.059z" class="cls-2" transform="translate(-29.304 -499.667)"/>
            </g>
            <path id="패스_281" fill="url(#linear-gradient)" d="M126.55 492.009v-.822q-.921.425-1.962.822z" transform="translate(32.076 42.293)"/>
            <g id="그룹_669" transform="translate(62.455 409.264)">
                <path id="패스_282" d="M124.411 412.813H98.519a5.386 5.386 0 0 0-5.381 5.381v6.162h36.654v-6.162a5.385 5.385 0 0 0-5.381-5.381z" class="cls-4" transform="translate(-46.615 -407.432)"/>
                <path id="패스_283" fill="url(#linear-gradient-2)" d="M62.455 448.069v52.7a27.7 27.7 0 0 0 24.574 27.518V420.551a27.7 27.7 0 0 0-24.574 27.518z" transform="translate(-62.455 -403.437)"/>
                <path id="패스_284" fill="url(#linear-gradient-3)" d="M131.789 420.551v107.734a27.7 27.7 0 0 0 24.572-27.518v-52.7a27.7 27.7 0 0 0-24.572-27.516z" transform="translate(-26.661 -403.437)"/>
                <path id="패스_285" fill="url(#linear-gradient-4)" d="M131.7 420.426h-5.821v108.113h5.821a27.808 27.808 0 0 0 3.136-.19V420.615a27.816 27.816 0 0 0-3.136-.189z" transform="translate(-29.711 -403.502)"/>
                <path id="패스_286" d="M131.7 420.426h-5.821v108.113h5.821a27.808 27.808 0 0 0 3.136-.19V420.615a27.816 27.816 0 0 0-3.136-.189z" class="cls-8" transform="translate(-29.711 -403.502)"/>
                <path id="패스_287" fill="url(#linear-gradient-5)" d="M81.8 420.426a27.767 27.767 0 0 0-3.134.19v107.733a27.76 27.76 0 0 0 3.134.19h5.822V420.426z" transform="translate(-54.088 -403.502)"/>
                <path id="패스_288" d="M81.8 420.426a27.767 27.767 0 0 0-3.134.19v107.733a27.76 27.76 0 0 0 3.134.19h5.822V420.426z" class="cls-8" transform="translate(-54.088 -403.502)"/>
                <path id="패스_289" d="M129.792 418.194a5.385 5.385 0 0 0-5.381-5.381H98.519a5.386 5.386 0 0 0-5.381 5.381v6.162h36.654z" class="cls-4" transform="translate(-46.615 -407.432)"/>
                <path id="패스_290" fill="url(#linear-gradient-6)" d="M99.593 502.46c2.17-7.725.754-28.066.754-28.066-.387-13.818-3.257-12.988-3.257-12.988-6.239-1.251-10.564-5.977-12.521-8.561V511.8h12.222c.823-2.089 2.061-6.515 2.6-8.555.109-.478.202-.785.202-.785z" transform="translate(-51.039 -386.765)"/>
                <path id="패스_291" fill="url(#linear-gradient-7)" d="M93.71 458.78c4.808-5.7 9.586-5.593 10.423-5.527l-9.144-5.9a1.191 1.191 0 1 1 1.292-2l28.979 18.712a2.363 2.363 0 0 1 .382.246l13.169 8.5a1.191 1.191 0 0 1-1.292 2l-5.333-3.443 2.2 2.408a2.814 2.814 0 0 1-1.063 4.526l-8.01 3.093c-.878.274-2.065.487-2.717-.07-.823-.7-.787-2.464-.7-3.09l.676-7.822a1.135 1.135 0 0 0-1.034-1.23 1.159 1.159 0 0 0-1.231 1.034l-.669 7.757c-.05.35-.435 3.448 1.48 5.081a3.9 3.9 0 0 0 2.62.9 7.46 7.46 0 0 0 2.024-.329 122.577 122.577 0 0 0 6.559 16.19c8.753 15.062 11.193 25.544 11.193 25.544.18.775.314 1.468.428 2.126a32.286 32.286 0 0 0 3.272-4.309v-96.989H139.6v-6.162a10.774 10.774 0 0 0-10.762-10.762h-25.895a10.774 10.774 0 0 0-10.762 10.762v6.162h-7.612v36.721a7.566 7.566 0 0 1 2.058-.845c6.06-1.572 7.083-3.284 7.083-3.284zm37.159 6.021l-23.831-15.385a14.276 14.276 0 0 1 23.831 15.384zm-33.307-44.775a5.386 5.386 0 0 1 5.381-5.381h25.891a5.385 5.385 0 0 1 5.381 5.381v6.162H97.562z" transform="translate(-51.039 -409.264)"/>
                <path id="패스_292" fill="url(#linear-gradient-8)" d="M98.519 444.751a2.4 2.4 0 1 0 2.1 2.38 2.255 2.255 0 0 0-2.1-2.38z" transform="translate(-44.924 -390.944)"/>
                <path id="패스_293" d="M118.955 435.139a14.284 14.284 0 0 0-19.567 2.381l23.831 15.385a14.286 14.286 0 0 0-4.264-17.766z" class="cls-1" transform="translate(-43.388 -397.368)"/>
                <path id="패스_294" d="M129.494 476.173a.43.43 0 0 0-.758.355c1 4.481-.744 8.838-2.854 12.188v10.307c14.477-6.696 7.013-18.551 3.612-22.85z" class="cls-1" transform="translate(-29.711 -374.807)"/>
                <path id="패스_295" d="M84.24 455.359a20.468 20.468 0 0 0 1.189 1.719v-12.434c-3.685 2.23-2.653 6.99-1.189 10.715z" class="cls-1" transform="translate(-51.899 -390.999)"/>
                <path id="패스_296" d="M143.938 515.26c-.114-.658-.247-1.351-.428-2.126 0 0-2.44-10.482-11.193-25.544a122.578 122.578 0 0 1-6.559-16.19 7.46 7.46 0 0 1-2.024.329 3.9 3.9 0 0 1-2.62-.9c-1.915-1.633-1.53-4.731-1.48-5.081l.669-7.757a1.159 1.159 0 0 1 1.231-1.034 1.135 1.135 0 0 1 1.034 1.23l-.676 7.822c-.085.626-.121 2.394.7 3.09.652.557 1.839.344 2.717.07l8.01-3.093a2.814 2.814 0 0 0 1.063-4.526l-2.2-2.408 5.333 3.443a1.191 1.191 0 1 0 1.292-2l-13.169-8.5a2.361 2.361 0 0 0-.382-.246L96.28 433.127a1.191 1.191 0 1 0-1.292 2l9.144 5.9c-.837-.067-5.615-.171-10.423 5.527 0 0-1.023 1.712-7.084 3.284a7.566 7.566 0 0 0-2.058.845v12.435c1.957 2.584 6.282 7.31 12.521 8.561 0 0 2.87-.829 3.257 12.988 0 0 1.416 20.34-.754 28.066 0 0-.089.308-.2.788-.538 2.039-1.776 6.465-2.6 8.555h48.456q1.042-.4 1.962-.822v-10.303a32.287 32.287 0 0 1-3.271 4.309zm-39.3-59.648a2.4 2.4 0 1 1 2.1-2.382 2.255 2.255 0 0 1-2.104 2.383z" class="cls-1" transform="translate(-51.039 -397.043)"/>
            </g>
        </g>
    </g>
</svg>
