<svg xmlns="http://www.w3.org/2000/svg" id="구성_요소_6_4" width="34" height="34" viewBox="0 0 34 34">
    <defs>
        <style>
            .cls-2{fill:#fff}
        </style>
    </defs>
    <path id="패스_551" fill="#4765ff" d="M17 0A17 17 0 1 1 0 17 17 17 0 0 1 17 0z"/>
    <g id="그룹_701" transform="translate(-152.199 -28.078)">
        <path id="패스_348" d="M168.827 32.078a9.639 9.639 0 0 0-9.628 9.629c0 2.144 1.514 6.045 4.048 10.435.406.7 4.018 6.881 5.579 6.881s5.174-6.177 5.581-6.881c2.535-4.39 4.048-8.291 4.048-10.435a9.639 9.639 0 0 0-9.628-9.629zm5.018 9.755a5.017 5.017 0 1 1-5.017-5.016 5.023 5.023 0 0 1 5.016 5.016z" class="cls-2" transform="translate(0 0)"/>
        <path id="패스_349" d="M175.467 45.139h-2.543V42.6a.383.383 0 1 0-.765 0v2.543h-2.543a.383.383 0 1 0 0 .765h2.543v2.543a.383.383 0 1 0 .765 0V45.9h2.543a.383.383 0 1 0 0-.765z" class="cls-2" transform="translate(-3.713 -3.751)"/>
    </g>
</svg>
