<svg xmlns="http://www.w3.org/2000/svg" id="구성_요소_5_1" width="34" height="34" viewBox="0 0 34 34">
    <defs>
        <style>
            .cls-2{fill:#2a2a2a}
        </style>
    </defs>
    <g id="그룹_664" transform="translate(-1768 -24)">
        <path id="사각형_256" fill="#fff" d="M0 0H34V34H0z" transform="translate(1768 24)"/>
    </g>
    <g id="그룹_666" transform="translate(-35.332 -82.492)">
        <path id="패스_269" d="M68.984 91.794a.678.678 0 0 0-.559-.311H43.618l-1.625-6.436a.709.709 0 0 0-.672-.556h-5.292a.762.762 0 0 0 0 1.519h4.761l1.623 6.428 4.018 13.683a.7.7 0 0 0 .664.527h17.611a.715.715 0 0 0 .671-.544l3.713-13.643a.8.8 0 0 0-.106-.667zM67.49 93l-3.3 12.127H47.6L44.042 93z" class="cls-2" transform="translate(0 0)"/>
        <path id="패스_270" d="M53.951 117.486a2.706 2.706 0 1 0 2.708 2.708 2.711 2.711 0 0 0-2.708-2.708zm0 3.894a1.186 1.186 0 1 1 1.188-1.185 1.188 1.188 0 0 1-1.188 1.185z" class="cls-2" transform="translate(-4.056 -8.41)"/>
        <path id="패스_271" d="M69.776 117.486a2.706 2.706 0 1 0 2.705 2.708 2.712 2.712 0 0 0-2.705-2.708zm0 3.894a1.186 1.186 0 1 1 1.188-1.185 1.188 1.188 0 0 1-1.188 1.185z" class="cls-2" transform="translate(-8.089 -8.41)"/>
    </g>
</svg>
