<svg xmlns="http://www.w3.org/2000/svg" id="구성_요소_4_1" width="34" height="34" viewBox="0 0 34 34">
    <defs>
        <style>
            .cls-2{fill:#2a2a2a}
        </style>
    </defs>
    <path id="사각형_60" fill="#fff" d="M0 0H34V34H0z"/>
    <g id="그룹_677" transform="translate(-89.861 -161.479)">
        <path id="패스_321" d="M120.892 163.477h-14.676a3.466 3.466 0 0 0-3.462 3.462v2.852a.689.689 0 0 0 1.378 0v-2.852a2.086 2.086 0 0 1 2.085-2.085h14.676a2.086 2.086 0 0 1 2.085 2.085v23.073a2.086 2.086 0 0 1-2.085 2.085h-14.677a2.086 2.086 0 0 1-2.085-2.085v-2.935a.689.689 0 1 0-1.378 0v2.935a3.466 3.466 0 0 0 3.462 3.462h14.676a3.466 3.466 0 0 0 3.462-3.462v-23.073a3.466 3.466 0 0 0-3.461-3.462z" class="cls-2" transform="translate(-1.834 0)"/>
        <path id="패스_322" d="M107.638 187.481a.689.689 0 1 0 .974.974l5.441-5.441c.014-.014.028-.028.04-.043a.679.679 0 0 0 .158-.346.633.633 0 0 0 .007-.14.686.686 0 0 0-.177-.425l-5.209-5.6a.689.689 0 0 0-1.009.939l4.133 4.442H97.548a.689.689 0 0 0 0 1.378h14.359z" class="cls-2" transform="translate(0 -3.969)"/>
    </g>
</svg>
