<svg xmlns="http://www.w3.org/2000/svg" id="구성_요소_3_1" width="34" height="34" viewBox="0 0 34 34">
    <defs>
        <style>
            .cls-2{fill:#2a2a2a}
        </style>
    </defs>
    <path id="사각형_60" fill="#fff" d="M0 0H34V34H0z"/>
    <g id="그룹_683" transform="translate(-147.675 -93.967)">
        <g id="그룹_682" transform="translate(155.675 95.966)">
            <path id="패스_331" d="M170.876 111.539a7.786 7.786 0 1 0-7.788-7.786 7.8 7.8 0 0 0 7.788 7.786zm0-14.338a6.552 6.552 0 1 1-6.551 6.552 6.56 6.56 0 0 1 6.551-6.553z" class="cls-2" transform="translate(-158.023 -95.966)"/>
            <path id="패스_332" d="M168.528 120.155a12.868 12.868 0 0 0-12.853 12.853.618.618 0 0 0 1.237 0 11.616 11.616 0 1 1 23.231 0 .619.619 0 0 0 1.237 0 12.867 12.867 0 0 0-12.852-12.853z" class="cls-2" transform="translate(-155.675 -103.626)"/>
        </g>
    </g>
</svg>
