<svg xmlns="http://www.w3.org/2000/svg" xmlns:xlink="http://www.w3.org/1999/xlink" width="186" height="52" viewBox="0 0 186 52">
    <defs>
        <linearGradient id="linear-gradient" x1="-.11" x2="3.984" y1=".32" y2="1.08" gradientUnits="objectBoundingBox">
            <stop offset="0" stop-color="#4765ff"/>
            <stop offset="1" stop-color="#32d8b8"/>
        </linearGradient>
        <linearGradient id="linear-gradient-2" x1="-2.971" x2="1.124" y1="-.077" y2=".682" xlink:href="#linear-gradient"/>
        <linearGradient id="linear-gradient-3" x1="-7.508" x2="3.724" y1="-.039" y2=".718" xlink:href="#linear-gradient"/>
        <linearGradient id="linear-gradient-4" x1="-2.688" x2="8.545" y1=".284" y2="1.041" xlink:href="#linear-gradient"/>
        <linearGradient id="linear-gradient-5" x1="-2.64" x2="3.558" y1="-.108" y2="1.28" xlink:href="#linear-gradient"/>
        <linearGradient id="linear-gradient-6" x1="-.065" x2="1.541" y1=".102" y2=".795" xlink:href="#linear-gradient"/>
        <linearGradient id="linear-gradient-7" x1="-8.086" x2="15.824" y1="-5.67" y2="11.511" xlink:href="#linear-gradient"/>
        <style>
            .cls-1,.cls-7{fill:#fff}.cls-2{fill:#4765ff}.cls-3{fill:none}.cls-7{opacity:.3}
        </style>
    </defs>
    <g id="그룹_675" transform="translate(10706 23273)">
        <path id="사각형_611" d="M0 0H186V52H0z" class="cls-1" transform="translate(-10706 -23273)"/>
        <g id="그룹_674" transform="translate(-10884.212 -23938.779)">
            <g id="그룹_672" transform="translate(235.088 678.111)">
                <path id="패스_297" d="M269.621 680.807H249.28a1.16 1.16 0 0 0-.831.39 1.26 1.26 0 0 0-.263.946v32.972a1.144 1.144 0 0 0 1.218 1.247h3.81a1.144 1.144 0 0 0 1.219-1.247V701.7h13.839a1.145 1.145 0 0 0 1.264-1.2v-3.1a1.145 1.145 0 0 0-1.264-1.2h-13.838v-9.8h15.187a1.145 1.145 0 0 0 1.264-1.2v-3.188a1.145 1.145 0 0 0-1.264-1.205z" class="cls-2" transform="translate(-248.181 -680.361)"/>
                <path id="패스_298" d="M286.69 692.068h-3.718a1.144 1.144 0 0 0-1.218 1.247v23.909a1.144 1.144 0 0 0 1.218 1.247h3.718a1.144 1.144 0 0 0 1.219-1.247v-23.909a1.144 1.144 0 0 0-1.219-1.247z" class="cls-2" transform="translate(-254.463 -682.469)"/>
                <path id="패스_299" d="M286.759 680.438a10.45 10.45 0 0 0-3.848 0 1.2 1.2 0 0 0-1.157 1.241v3.821a1.194 1.194 0 0 0 1.149 1.241 10.561 10.561 0 0 0 3.848 0 1.2 1.2 0 0 0 1.157-1.242v-3.825a1.193 1.193 0 0 0-1.149-1.236z" class="cls-2" transform="translate(-254.463 -680.259)"/>
                <path id="패스_300" d="M310.52 711.991a21.91 21.91 0 0 1-4.146.135c-1.475-.115-1.879-.738-1.879-2.9v-13.417h5.38a1.146 1.146 0 0 0 1.266-1.2v-2.733a1.146 1.146 0 0 0-1.266-1.2h-5.38v-5.538a1.144 1.144 0 0 0-1.218-1.248h-3.718a1.144 1.144 0 0 0-1.218 1.248v5.538h-2.685a1.145 1.145 0 0 0-1.266 1.2v2.733a1.145 1.145 0 0 0 1.266 1.2h2.685v14.829c0 4.455 2.218 6.53 6.98 6.53a16.161 16.161 0 0 0 5.548-.854 1.343 1.343 0 0 0 .969-1.349V713.1a1.054 1.054 0 0 0-1.318-1.109z" class="cls-2" transform="translate(-256.828 -680.938)"/>
                <path id="패스_301" d="M334.27 680.807h-11.942a1.22 1.22 0 0 0-1.4 1.156v33.154a1.144 1.144 0 0 0 1.218 1.247h3.811a1.144 1.144 0 0 0 1.219-1.247v-12.644h6.4c9.225 0 13.161-2.961 13.161-9.9v-1.958c-.003-8.643-6.303-9.808-12.467-9.808zm6.217 9.308v2.685c0 2.765-1.139 4.264-7.147 4.264h-6.17v-10.848h7.33c5.061 0 5.987 1.314 5.987 3.899z" class="cls-2" transform="translate(-261.793 -680.361)"/>
                <path id="패스_302" d="M366.75 692.236c-7.65 0-11.861 4.373-11.861 12.313v2.459c0 5.458 1.427 11.722 12.557 11.722 1.288 0 5.734-.138 8.88-1.918a1.515 1.515 0 0 0 .936-1.424v-2.095a.947.947 0 0 0-.967-1.049 1.528 1.528 0 0 0-.506.094 25.758 25.758 0 0 1-7.789 1.214h-.365c-6.812-.087-6.827-3.019-6.827-5.612H376c1.294 0 1.822-.493 1.822-1.7v-1.047c-.002-8.841-3.522-12.957-11.072-12.957zm5.193 10.565h-11.131c.048-3.739 1.845-5.338 5.984-5.338 3.604 0 5.104 1.55 5.147 5.337z" class="cls-2" transform="translate(-268.149 -682.5)"/>
                <path id="패스_303" d="M401.154 711.991a21.911 21.911 0 0 1-4.147.135c-1.475-.115-1.879-.738-1.879-2.9v-13.417h5.38a1.145 1.145 0 0 0 1.266-1.2v-2.733a1.146 1.146 0 0 0-1.266-1.2h-5.38v-5.538a1.144 1.144 0 0 0-1.218-1.248h-3.718a1.144 1.144 0 0 0-1.219 1.248v5.538h-2.683a1.146 1.146 0 0 0-1.266 1.2v2.733a1.145 1.145 0 0 0 1.266 1.2h2.685v14.829c0 4.455 2.218 6.53 6.98 6.53a16.161 16.161 0 0 0 5.548-.854 1.343 1.343 0 0 0 .969-1.349V713.1a1.054 1.054 0 0 0-1.318-1.109z" class="cls-2" transform="translate(-273.788 -680.938)"/>
            </g>
            <g id="그룹_673" transform="translate(178.212 668.779)">
                <path id="패스_304" d="M211.313 671.255h-9.683a2.015 2.015 0 0 0-2.013 2.013v2.3h13.709v-2.3a2.015 2.015 0 0 0-2.013-2.013z" class="cls-3" transform="translate(-182.217 -669.242)"/>
                <path id="패스_305" fill="url(#linear-gradient)" d="M178.212 686.945v19.709a10.361 10.361 0 0 0 9.19 10.293v-40.294a10.361 10.361 0 0 0-9.19 10.292z" transform="translate(-178.212 -670.252)"/>
                <path id="패스_306" fill="url(#linear-gradient-2)" d="M226.581 676.653v40.293a10.361 10.361 0 0 0 9.19-10.293v-19.708a10.361 10.361 0 0 0-9.19-10.292z" transform="translate(-187.263 -670.252)"/>
                <path id="패스_307" fill="url(#linear-gradient-3)" d="M224.638 676.566h-2.178V717h2.178a10.527 10.527 0 0 0 1.172-.071v-40.292a10.354 10.354 0 0 0-1.172-.071z" transform="translate(-186.492 -670.236)"/>
                <path id="패스_308" d="M224.638 676.566h-2.178V717h2.178a10.527 10.527 0 0 0 1.172-.071v-40.292a10.354 10.354 0 0 0-1.172-.071z" class="cls-7" transform="translate(-186.492 -670.236)"/>
                <path id="패스_309" fill="url(#linear-gradient-4)" d="M190.691 676.566a10.357 10.357 0 0 0-1.173.071v40.293a10.53 10.53 0 0 0 1.173.071h2.177v-40.435z" transform="translate(-180.328 -670.236)"/>
                <path id="패스_310" d="M190.691 676.566a10.357 10.357 0 0 0-1.173.071v40.293a10.53 10.53 0 0 0 1.173.071h2.177v-40.435z" class="cls-7" transform="translate(-180.328 -670.236)"/>
                <path id="패스_311" d="M213.326 673.268a2.015 2.015 0 0 0-2.013-2.013h-9.683a2.015 2.015 0 0 0-2.013 2.013v2.3h13.709z" class="cls-3" transform="translate(-182.217 -669.242)"/>
                <path id="패스_312" fill="url(#linear-gradient-5)" d="M199.258 717.738c.811-2.889.282-10.5.282-10.5-.145-5.168-1.219-4.858-1.219-4.858a8.258 8.258 0 0 1-4.683-3.2v22.051h4.572c.307-.782.771-2.437.972-3.2.043-.178.076-.293.076-.293z" transform="translate(-181.099 -674.468)"/>
                <path id="패스_313" fill="url(#linear-gradient-6)" d="M197.058 687.3c1.8-2.131 3.585-2.091 3.9-2.067l-3.42-2.208a.446.446 0 1 1 .484-.749l10.838 7a.859.859 0 0 1 .143.093l4.925 3.18a.446.446 0 0 1-.484.749l-1.994-1.288.823.9a1.053 1.053 0 0 1-.4 1.693l-3 1.157a1.159 1.159 0 0 1-1.016-.026c-.308-.26-.294-.922-.263-1.156l.254-2.926a.425.425 0 0 0-.388-.46.434.434 0 0 0-.46.387l-.25 2.9a2.26 2.26 0 0 0 .554 1.9 1.461 1.461 0 0 0 .98.335 2.8 2.8 0 0 0 .757-.123 45.884 45.884 0 0 0 2.453 6.055 38.7 38.7 0 0 1 4.186 9.554c.067.289.117.549.16.794a12.053 12.053 0 0 0 1.223-1.611v-36.274h-2.843v-2.3a4.03 4.03 0 0 0-4.025-4.025h-9.684a4.03 4.03 0 0 0-4.025 4.025v2.3h-2.847v13.734a2.86 2.86 0 0 1 .77-.316c2.267-.588 2.649-1.227 2.649-1.227zm13.9 2.252l-8.913-5.754a5.34 5.34 0 0 1 8.913 5.754zM198.5 672.8a2.015 2.015 0 0 1 2.013-2.013h9.684a2.015 2.015 0 0 1 2.013 2.013v2.3H198.5z" transform="translate(-181.099 -668.779)"/>
                <path id="패스_314" fill="url(#linear-gradient-7)" d="M202.69 693.535a.9.9 0 1 0 .787.891.844.844 0 0 0-.787-.891z" transform="translate(-182.645 -673.411)"/>
                <path id="패스_315" d="M211.3 685.914a5.342 5.342 0 0 0-7.318.89l8.913 5.754a5.343 5.343 0 0 0-1.595-6.644z" class="cls-1" transform="translate(-183.033 -671.787)"/>
                <path id="패스_316" d="M223.811 715.4a.161.161 0 0 0-.284.133 6.164 6.164 0 0 1-1.067 4.558v3.855c5.415-2.501 2.623-6.935 1.351-8.546z" class="cls-1" transform="translate(-186.492 -677.492)"/>
                <path id="패스_317" d="M192.977 697.469a7.78 7.78 0 0 0 .445.643v-4.65c-1.378.838-.992 2.613-.445 4.007z" class="cls-1" transform="translate(-180.881 -673.398)"/>
                <path id="패스_318" d="M215.844 716.082c-.043-.245-.093-.5-.16-.794a38.7 38.7 0 0 0-4.186-9.554 45.888 45.888 0 0 1-2.453-6.055 2.8 2.8 0 0 1-.757.123 1.461 1.461 0 0 1-.98-.335 2.26 2.26 0 0 1-.554-1.9l.25-2.9a.434.434 0 0 1 .46-.387.425.425 0 0 1 .388.46l-.254 2.926c-.032.234-.046.9.263 1.156a1.16 1.16 0 0 0 1.016.026l3-1.157a1.053 1.053 0 0 0 .4-1.693l-.823-.9 1.994 1.288a.446.446 0 0 0 .484-.749L209 692.455a.874.874 0 0 0-.143-.093l-10.838-7a.446.446 0 0 0-.484.749l3.42 2.208c-.313-.024-2.1-.064-3.9 2.067 0 0-.382.641-2.649 1.228a2.859 2.859 0 0 0-.77.316v4.65a8.257 8.257 0 0 0 4.683 3.2s1.074-.311 1.219 4.858c0 0 .529 7.608-.282 10.5 0 0-.033.115-.076.3-.2.762-.665 2.417-.972 3.2h18.123q.389-.149.733-.308v-3.855a12.062 12.062 0 0 1-1.22 1.607zm-14.7-22.308a.9.9 0 1 1 .787-.891.844.844 0 0 1-.788.892z" class="cls-1" transform="translate(-181.099 -671.869)"/>
            </g>
        </g>
    </g>
</svg>
