<svg xmlns="http://www.w3.org/2000/svg" width="34" height="34" viewBox="0 0 34 34">
    <path fill="none" d="M0 0H34V34H0z"/>
    <path fill="#707070" d="M467.221 33.889h-2.983v-1.344a.468.468 0 0 0-.935 0v1.345h-7.543v-1.345a.468.468 0 0 0-.936 0v1.345h-2.905a2.432 2.432 0 0 0-2.43 2.429v15.3a2.432 2.432 0 0 0 2.43 2.428h15.3a2.432 2.432 0 0 0 2.43-2.428v-15.3a2.432 2.432 0 0 0-2.428-2.43zm-16.8 4.682v-2.253a1.5 1.5 0 0 1 1.494-1.493h2.905v1.142a.468.468 0 0 0 .936 0v-1.142h7.544v1.142a.468.468 0 1 0 .935 0v-1.142h2.983a1.5 1.5 0 0 1 1.494 1.493v2.254z" transform="translate(-442.489 -26.078)"/>
</svg>
