<svg xmlns="http://www.w3.org/2000/svg" id="구성_요소_23_1" width="34" height="34" viewBox="0 0 34 34">
    <defs>
        <style>
            .cls-2{fill:#4765ff}
        </style>
    </defs>
    <path id="사각형_264" fill="#fff" d="M0 0H34V34H0z"/>
    <g id="그룹_853" transform="translate(-509.926 -27.088)">
        <path id="패스_370" d="M535.672 40.116l-4.1-1h-.08a.288.288 0 0 0-.074 0h-.01l-.751.185.053-.129a6.681 6.681 0 0 0 .612-2.221 3.862 3.862 0 0 0-7.723 0 6.678 6.678 0 0 0 .612 2.23l.054.131-.747-.195h-.137a.242.242 0 0 0-.065 0h-.018l-4.046 1a.431.431 0 0 0-.329.42v14.077a.425.425 0 0 0 .164.34.449.449 0 0 0 .371.08l3.95-.976 3.947.975a.444.444 0 0 0 .21 0l3.948-.976 3.948.976a.446.446 0 0 0 .369-.078.435.435 0 0 0 .168-.342V40.535a.431.431 0 0 0-.326-.419zm-12.694 13.158l-.054.014-3.135.774V40.874l3.188-.787zm4.052.788l-3.187-.788V40.095l.879.231.014.029c.874 1.841 1.969 3.682 2.284 4.2l.01.017zm.494-10.555l-.061.1-.061-.1c-.778-1.331-1.488-2.67-2-3.77a8.281 8.281 0 0 1-.935-2.787 3 3 0 0 1 5.993 0c0 1.126-1.516 4.125-2.935 6.556zm3.558 9.767l-.054.014-3.133.774v-9.486l.01-.017c.316-.523 1.414-2.374 2.292-4.226l.014-.03.87-.215zm4.052.788l-3.187-.788V40.087l3.187.787z" class="cls-2" transform="translate(0 0)"/>
        <path id="패스_371" d="M532.27 35.921a2.257 2.257 0 1 0 2.256 2.256 2.259 2.259 0 0 0-2.256-2.256zm0 3.648a1.391 1.391 0 1 1 1.391-1.392 1.394 1.394 0 0 1-1.391 1.392z" class="cls-2" transform="translate(-4.805 -1.228)"/>
    </g>
</svg>
