<svg xmlns="http://www.w3.org/2000/svg" width="24" height="24" viewBox="0 0 24 24">
    <g>
        <path fill="#fff" d="M0 0H24V24H0z" transform="translate(-948 -534) translate(948 534)"/>
        <path fill="#4765ff" d="M338.027 32.078a5.724 5.724 0 0 0-5.717 5.722c0 1.273.9 3.589 2.4 6.2.242.419 2.386 4.086 3.313 4.086s3.072-3.668 3.313-4.086c1.505-2.607 2.4-4.923 2.4-6.2a5.724 5.724 0 0 0-5.709-5.722zm2.979 5.792a2.979 2.979 0 1 1-2.979-2.978 2.983 2.983 0 0 1 2.979 2.978z" transform="translate(-948 -534) translate(626.256 505.922)"/>
    </g>
</svg>
