<svg xmlns="http://www.w3.org/2000/svg" width="24" height="24" viewBox="0 0 24 24">
    <g>
        <g>
            <path fill="none" d="M0 0H24V24H0z" transform="translate(-897 -633) translate(897 633)"/>
            <path fill="#4765ff" d="M15.481 6.357a.831.831 0 0 0-.71-.592l-4.48-.424L8.52 1.014a.812.812 0 0 0-1.52 0L5.231 5.341.75 5.765a.833.833 0 0 0-.709.592.884.884 0 0 0 .241.914l3.386 3.1-1 4.59a.88.88 0 0 0 .321.889.792.792 0 0 0 .906.041l3.864-2.41 3.863 2.41a.794.794 0 0 0 .907-.041.88.88 0 0 0 .321-.889l-1-4.59 3.386-3.1a.886.886 0 0 0 .242-.915zm0 0" transform="translate(-897 -633) translate(901 636.509)"/>
        </g>
    </g>
</svg>
