<svg xmlns="http://www.w3.org/2000/svg" width="39" height="39" viewBox="0 0 39 39">
    <defs>
        <linearGradient id="linear-gradient" x2="1" y1=".5" y2=".5" gradientUnits="objectBoundingBox">
            <stop offset="0" stop-color="#fff"/>
            <stop offset="0" stop-color="#fab054"/>
            <stop offset=".293" stop-color="#df2c4d"/>
            <stop offset=".734" stop-color="#9e4292"/>
            <stop offset="1" stop-color="#5f559d"/>
        </linearGradient>
        <style>
            .cls-2{fill:#fff}
        </style>
    </defs>
    <g id="그룹_1324" transform="translate(-10.834 -216.208)">
        <circle id="타원_246" cx="19.5" cy="19.5" r="19.5" fill="url(#linear-gradient)" transform="translate(10.834 216.207)"/>
        <path id="패스_563" d="M70.445 279.739H57.8a3.925 3.925 0 0 1-3.92-3.92v-12.647a3.925 3.925 0 0 1 3.92-3.92h12.645a3.925 3.925 0 0 1 3.92 3.92v12.646a3.925 3.925 0 0 1-3.92 3.921zM57.8 260.594a2.581 2.581 0 0 0-2.578 2.578v12.646A2.581 2.581 0 0 0 57.8 278.4h12.645a2.581 2.581 0 0 0 2.578-2.578v-12.65a2.581 2.581 0 0 0-2.578-2.578z" class="cls-2" transform="translate(-33.788 -33.788)"/>
        <path id="패스_564" d="M82.009 292.727a5.343 5.343 0 1 1 5.343-5.343 5.349 5.349 0 0 1-5.343 5.343zm0-9.344a4 4 0 1 0 4 4 4.006 4.006 0 0 0-4-4.001z" class="cls-2" transform="translate(-51.675 -51.676)"/>
        <circle id="타원_247" cx="1.348" cy="1.348" r="1.348" class="cls-2" transform="translate(34.966 228.301)"/>
    </g>
</svg>
