<svg xmlns="http://www.w3.org/2000/svg" width="38.999" height="38.999" viewBox="0 0 38.999 38.999">
    <g transform="translate(-649.696 -215.513)">
        <circle cx="19.5" cy="19.5" r="19.5" fill="#35b2e3" transform="translate(649.696 215.513)"/>
        <path fill="#fff" d="M707.066 269.59a5.713 5.713 0 0 0-6.154-.494s-2.165.988-2.2 4.786c0 0-6.8.076-9.724-4.786a4.88 4.88 0 0 0 1.064 6.154 2.013 2.013 0 0 1-1.726-.228s-.553 3.191 3.436 4.634a6.729 6.729 0 0 1-1.9.152s1.33 3.229 4.292 3.153a10.735 10.735 0 0 1-6.723 2.089s9.572 6.647 18.309-3.191c0 0 3.229-4.14 2.735-8.623a14.628 14.628 0 0 0 2.393-2.773l-2.507.873 2.013-2.507z" transform="translate(-29.618 -41.499)"/>
    </g>
</svg>
